<svg width="18" height="14" viewBox="0 0 18 14" fill="none" xmlns="http://www.w3.org/2000/svg">
<g id="Group">
<path id="Vector" d="M8.99985 9.99872C10.6561 9.99872 11.9987 8.65608 11.9987 6.99985C11.9987 5.34362 10.6561 4.00098 8.99985 4.00098C7.34362 4.00098 6.00098 5.34362 6.00098 6.99985C6.00098 8.65608 7.34362 9.99872 8.99985 9.99872Z" fill="#858D9D"/>
<path id="Vector_2" d="M17.4501 5.06527C16.2873 3.17147 13.6423 -0.00585938 8.99998 -0.00585938C4.35771 -0.00585938 1.71269 3.17147 0.549868 5.06527C-0.183289 6.25111 -0.183289 7.74947 0.549868 8.93535C1.71269 10.8291 4.35771 14.0065 8.99998 14.0065C13.6423 14.0065 16.2873 10.8291 17.4501 8.93535C18.1833 7.74947 18.1833 6.25111 17.4501 5.06527ZM8.99998 11.4986C6.51564 11.4986 4.50165 9.48463 4.50165 7.00029C4.50165 4.51595 6.51564 2.50196 8.99998 2.50196C11.4843 2.50196 13.4983 4.51595 13.4983 7.00029C13.4958 9.48361 11.4833 11.4961 8.99998 11.4986Z" fill="#858D9D"/>
</g>
</svg>
