<svg width="25" height="24" viewBox="0 0 25 24" fill="none" xmlns="http://www.w3.org/2000/svg">
<g id="Iconly/Bulk/Message">
<g id="Group">
<path id="Fill 1" opacity="0.4" d="M22.5 15.94C22.5 18.73 20.26 20.99 17.47 21H17.46H7.55C4.77 21 2.5 18.75 2.5 15.96V15.95C2.5 15.95 2.506 11.524 2.514 9.298C2.515 8.88 2.995 8.646 3.322 8.906C5.698 10.791 9.947 14.228 10 14.273C10.71 14.842 11.61 15.163 12.53 15.163C13.45 15.163 14.35 14.842 15.06 14.262C15.113 14.227 19.267 10.893 21.679 8.977C22.007 8.716 22.489 8.95 22.49 9.367C22.5 11.576 22.5 15.94 22.5 15.94Z" fill="#8A92A6"/>
<path id="Fill 4" d="M21.9769 5.674C21.1109 4.042 19.4069 3 17.5309 3H7.55086C5.67486 3 3.97086 4.042 3.10486 5.674C2.91086 6.039 3.00286 6.494 3.32586 6.752L10.7509 12.691C11.2709 13.111 11.9009 13.32 12.5309 13.32C12.5349 13.32 12.5379 13.32 12.5409 13.32C12.5439 13.32 12.5479 13.32 12.5509 13.32C13.1809 13.32 13.8109 13.111 14.3309 12.691L21.7559 6.752C22.0789 6.494 22.1709 6.039 21.9769 5.674Z" fill="#8A92A6"/>
</g>
</g>
</svg>
