<svg width="25" height="24" viewBox="0 0 25 24" fill="none" xmlns="http://www.w3.org/2000/svg">
<g id="Iconly/Bulk/Notification">
<g id="Notification">
<path id="Fill 1" d="M20.2695 11.6453C19.539 10.7923 19.2071 10.0531 19.2071 8.79716V8.37013C19.2071 6.73354 18.8304 5.67907 18.0115 4.62459C16.7493 2.98699 14.6244 2 12.5442 2H12.4558C10.4194 2 8.36106 2.94167 7.077 4.5128C6.21333 5.58842 5.79293 6.68822 5.79293 8.37013V8.79716C5.79293 10.0531 5.48284 10.7923 4.73049 11.6453C4.17691 12.2738 4 13.0815 4 13.9557C4 14.8309 4.28723 15.6598 4.86367 16.3336C5.61602 17.1413 6.67846 17.6569 7.76375 17.7466C9.33505 17.9258 10.9063 17.9933 12.5005 17.9933C14.0937 17.9933 15.665 17.8805 17.2372 17.7466C18.3215 17.6569 19.384 17.1413 20.1363 16.3336C20.7118 15.6598 21 14.8309 21 13.9557C21 13.0815 20.8231 12.2738 20.2695 11.6453Z" fill="#8A92A6"/>
<path id="Fill 4" opacity="0.4" d="M14.5078 19.2285C14.0079 19.1217 10.9617 19.1217 10.4618 19.2285C10.0344 19.3272 9.57227 19.5568 9.57227 20.0604C9.59711 20.5408 9.87837 20.9648 10.268 21.2337L10.267 21.2347C10.7709 21.6275 11.3622 21.8773 11.9814 21.9669C12.3113 22.0122 12.6473 22.0102 12.9892 21.9669C13.6073 21.8773 14.1987 21.6275 14.7026 21.2347L14.7016 21.2337C15.0912 20.9648 15.3724 20.5408 15.3973 20.0604C15.3973 19.5568 14.9351 19.3272 14.5078 19.2285Z" fill="#8A92A6"/>
</g>
</g>
</svg>
